<?xml version="1.0" encoding="utf-8"?>
<svg version="1.1" xmlns="http://www.w3.org/2000/svg" xmlns:xlink="http://www.w3.org/1999/xlink" x="0px" y="0px" width="512px"
	 height="512px" viewBox="0 0 512 512" enable-background="new 0 0 512 512" xml:space="preserve">
<g id="Layer_1">
	<polygon fill="#EF4443" points="150.12,512.388 0.045,362.313 0.045,150.075 150.12,0 362.358,0 512.433,150.075 512.433,362.313
		362.358,512.388 	"/>
</g>
<g id="Layer_2">
	<path fill="#FFFFFF" d="M195.927,115.194l34.285,44.814l-118.544,0.224L49.7,227.994V165.81l46.475-50.616H195.927z M119.5,147.5
		l-0.087,204.657l110.799-0.234l-34.285,45.271H96.176L49.7,346.578V214.25L119.5,147.5z"/>
	<path fill="#FFFFFF" d="M250.317,227.994v-112.8h170.219l46.475,50.616v86.94l-61.967-92.519h-92.76L250.317,227.994z
		 M320.25,145.5l-0.22,251.694h-69.713V203L320.25,145.5z M467.01,252.75l-45.152,49.205h-60.455l37.785-41.319L399,141.25
		L467.01,252.75z"/>
</g>
</svg>
