<?xml version="1.0" encoding="utf-8"?>
<svg version="1.1" xmlns="http://www.w3.org/2000/svg" xmlns:xlink="http://www.w3.org/1999/xlink" x="0px" y="0px" width="512px"
	 height="512px" viewBox="0 0 512 512" enable-background="new 0 0 512 512" xml:space="preserve">
<g id="Layer_1">
	<path fill="#EF4443" d="M511.667,409.267c0,56.462-45.771,102.233-102.233,102.233h-306.7C46.271,511.5,0.5,465.729,0.5,409.267
		v-306.7C0.5,46.105,46.271,0.333,102.733,0.333h306.7c56.462,0,102.233,45.771,102.233,102.233V409.267z"/>
</g>
<g id="Layer_2">
	<g>
		<path fill="#FFFFFF" d="M207.098,145.28L234,180.444l-93.017,0.176L92.361,233.79v-48.794l36.467-39.716H207.098z M147.13,170.629
			l-0.068,160.585L234,331.031l-26.902,35.522h-78.27l-36.467-39.716V223.005L147.13,170.629z"/>
		<path fill="#FFFFFF" d="M249.776,233.79V145.28h133.563l36.467,39.716v68.218l-48.623-72.595h-72.784L249.776,233.79z
			 M304.649,169.06l-0.173,197.493h-54.701V214.178L304.649,169.06z M419.806,253.214l-35.429,38.609H336.94l29.648-32.422
			l-0.148-93.676L419.806,253.214z"/>
	</g>
</g>
</svg>
